<mxfile host="Electron" agent="Mozilla/5.0 (Windows NT 10.0; Win64; x64) AppleWebKit/537.36 (KHTML, like Gecko) draw.io/24.7.8 Chrome/128.0.6613.36 Electron/32.0.1 Safari/537.36" version="24.7.8">
  <diagram name="Page-1" id="e7e014a7-5840-1c2e-5031-d8a46d1fe8dd">
    <mxGraphModel dx="1244" dy="1221" grid="1" gridSize="10" guides="1" tooltips="1" connect="1" arrows="1" fold="1" page="0" pageScale="1" pageWidth="1169" pageHeight="827" background="none" math="0" shadow="0">
      <root>
        <mxCell id="0" />
        <mxCell id="1" parent="0" />
        <mxCell id="kkfp5tMhu7OLnbENiX6D-41" value="Клиент" style="rounded=1;whiteSpace=wrap;html=1;labelBackgroundColor=none;strokeWidth=3;fontSize=21;" parent="1" vertex="1">
          <mxGeometry x="480" y="940" width="120" height="60" as="geometry" />
        </mxCell>
        <mxCell id="kkfp5tMhu7OLnbENiX6D-42" value="Совершает" style="rhombus;whiteSpace=wrap;html=1;rounded=1;" parent="1" vertex="1">
          <mxGeometry x="500" y="750" width="80" height="80" as="geometry" />
        </mxCell>
        <mxCell id="kkfp5tMhu7OLnbENiX6D-43" value="Продажи" style="rounded=1;whiteSpace=wrap;html=1;labelBackgroundColor=none;strokeWidth=3;fontSize=21;" parent="1" vertex="1">
          <mxGeometry x="640" y="760" width="120" height="60" as="geometry" />
        </mxCell>
        <mxCell id="kkfp5tMhu7OLnbENiX6D-44" value="Осуществляет" style="rhombus;whiteSpace=wrap;html=1;rounded=1;" parent="1" vertex="1">
          <mxGeometry x="900" y="745" width="100" height="90" as="geometry" />
        </mxCell>
        <mxCell id="kkfp5tMhu7OLnbENiX6D-45" value="Склад" style="rounded=1;whiteSpace=wrap;html=1;labelBackgroundColor=none;strokeWidth=3;fontSize=21;" parent="1" vertex="1">
          <mxGeometry x="1200" y="380" width="120" height="60" as="geometry" />
        </mxCell>
        <mxCell id="kkfp5tMhu7OLnbENiX6D-46" value="Хранятся" style="rhombus;whiteSpace=wrap;html=1;rounded=1;" parent="1" vertex="1">
          <mxGeometry x="900" y="210" width="100" height="90" as="geometry" />
        </mxCell>
        <mxCell id="kkfp5tMhu7OLnbENiX6D-47" value="Продукты" style="rounded=1;whiteSpace=wrap;html=1;labelBackgroundColor=none;strokeWidth=3;fontSize=21;" parent="1" vertex="1">
          <mxGeometry x="890" y="350" width="120" height="60" as="geometry" />
        </mxCell>
        <mxCell id="kkfp5tMhu7OLnbENiX6D-48" value="Производят" style="rhombus;whiteSpace=wrap;html=1;rounded=1;" parent="1" vertex="1">
          <mxGeometry x="900" y="460" width="100" height="90" as="geometry" />
        </mxCell>
        <mxCell id="kkfp5tMhu7OLnbENiX6D-49" value="Фирма" style="rounded=1;whiteSpace=wrap;html=1;labelBackgroundColor=none;strokeWidth=3;fontSize=21;" parent="1" vertex="1">
          <mxGeometry x="906.36" y="625" width="87.27" height="40" as="geometry" />
        </mxCell>
        <mxCell id="kkfp5tMhu7OLnbENiX6D-50" value="Используется" style="rhombus;whiteSpace=wrap;html=1;rounded=1;" parent="1" vertex="1">
          <mxGeometry x="670" y="600" width="100" height="90" as="geometry" />
        </mxCell>
        <mxCell id="kkfp5tMhu7OLnbENiX6D-51" value="Сырье" style="rounded=1;whiteSpace=wrap;html=1;labelBackgroundColor=none;strokeWidth=3;fontSize=21;" parent="1" vertex="1">
          <mxGeometry x="660" y="510" width="120" height="60" as="geometry" />
        </mxCell>
        <mxCell id="kkfp5tMhu7OLnbENiX6D-52" value="Поставляет" style="rhombus;whiteSpace=wrap;html=1;rounded=1;" parent="1" vertex="1">
          <mxGeometry x="490" y="495" width="100" height="90" as="geometry" />
        </mxCell>
        <mxCell id="kkfp5tMhu7OLnbENiX6D-53" value="Поставщик" style="rounded=1;whiteSpace=wrap;html=1;labelBackgroundColor=none;strokeWidth=3;fontSize=21;" parent="1" vertex="1">
          <mxGeometry x="310" y="510" width="120" height="60" as="geometry" />
        </mxCell>
        <mxCell id="kkfp5tMhu7OLnbENiX6D-56" value="" style="endArrow=none;html=1;rounded=1;exitX=0.5;exitY=0;exitDx=0;exitDy=0;entryX=0.5;entryY=1;entryDx=0;entryDy=0;" parent="1" source="kkfp5tMhu7OLnbENiX6D-41" target="kkfp5tMhu7OLnbENiX6D-42" edge="1">
          <mxGeometry width="50" height="50" relative="1" as="geometry">
            <mxPoint x="720" y="1240" as="sourcePoint" />
            <mxPoint x="770" y="1190" as="targetPoint" />
          </mxGeometry>
        </mxCell>
        <mxCell id="kkfp5tMhu7OLnbENiX6D-57" value="" style="endArrow=none;html=1;rounded=1;exitX=1;exitY=0.5;exitDx=0;exitDy=0;entryX=0;entryY=0.5;entryDx=0;entryDy=0;" parent="1" source="kkfp5tMhu7OLnbENiX6D-42" target="kkfp5tMhu7OLnbENiX6D-43" edge="1">
          <mxGeometry width="50" height="50" relative="1" as="geometry">
            <mxPoint x="450" y="800" as="sourcePoint" />
            <mxPoint x="510" y="800" as="targetPoint" />
          </mxGeometry>
        </mxCell>
        <mxCell id="kkfp5tMhu7OLnbENiX6D-58" value="" style="endArrow=none;html=1;rounded=1;exitX=1;exitY=0.5;exitDx=0;exitDy=0;entryX=0;entryY=0.5;entryDx=0;entryDy=0;" parent="1" source="kkfp5tMhu7OLnbENiX6D-43" target="kkfp5tMhu7OLnbENiX6D-44" edge="1">
          <mxGeometry width="50" height="50" relative="1" as="geometry">
            <mxPoint x="590" y="800" as="sourcePoint" />
            <mxPoint x="650" y="800" as="targetPoint" />
          </mxGeometry>
        </mxCell>
        <mxCell id="kkfp5tMhu7OLnbENiX6D-59" value="" style="endArrow=none;html=1;rounded=1;exitX=0.5;exitY=0;exitDx=0;exitDy=0;entryX=0.5;entryY=1;entryDx=0;entryDy=0;" parent="1" source="kkfp5tMhu7OLnbENiX6D-44" target="kkfp5tMhu7OLnbENiX6D-49" edge="1">
          <mxGeometry width="50" height="50" relative="1" as="geometry">
            <mxPoint x="540" as="sourcePoint" />
            <mxPoint x="820" y="-10" as="targetPoint" />
          </mxGeometry>
        </mxCell>
        <mxCell id="kkfp5tMhu7OLnbENiX6D-60" value="" style="endArrow=none;html=1;rounded=1;exitX=1;exitY=0.5;exitDx=0;exitDy=0;entryX=0;entryY=0.5;entryDx=0;entryDy=0;" parent="1" source="kkfp5tMhu7OLnbENiX6D-46" target="kkfp5tMhu7OLnbENiX6D-45" edge="1">
          <mxGeometry width="50" height="50" relative="1" as="geometry">
            <mxPoint x="804" y="149" as="sourcePoint" />
            <mxPoint x="900" y="150" as="targetPoint" />
            <Array as="points">
              <mxPoint x="1160" y="255" />
              <mxPoint x="1160" y="410" />
            </Array>
          </mxGeometry>
        </mxCell>
        <mxCell id="kkfp5tMhu7OLnbENiX6D-61" value="" style="endArrow=none;html=1;rounded=1;exitX=0.5;exitY=0;exitDx=0;exitDy=0;entryX=0.5;entryY=1;entryDx=0;entryDy=0;" parent="1" source="kkfp5tMhu7OLnbENiX6D-47" target="kkfp5tMhu7OLnbENiX6D-46" edge="1">
          <mxGeometry width="50" height="50" relative="1" as="geometry">
            <mxPoint x="960" y="220" as="sourcePoint" />
            <mxPoint x="1040" y="280" as="targetPoint" />
          </mxGeometry>
        </mxCell>
        <mxCell id="kkfp5tMhu7OLnbENiX6D-62" value="" style="endArrow=none;html=1;rounded=1;exitX=0.5;exitY=0;exitDx=0;exitDy=0;entryX=0.5;entryY=1;entryDx=0;entryDy=0;" parent="1" source="kkfp5tMhu7OLnbENiX6D-48" target="kkfp5tMhu7OLnbENiX6D-47" edge="1">
          <mxGeometry width="50" height="50" relative="1" as="geometry">
            <mxPoint x="960" y="360" as="sourcePoint" />
            <mxPoint x="960" y="310" as="targetPoint" />
          </mxGeometry>
        </mxCell>
        <mxCell id="kkfp5tMhu7OLnbENiX6D-63" value="" style="endArrow=none;html=1;rounded=1;exitX=0.5;exitY=0;exitDx=0;exitDy=0;entryX=0.5;entryY=1;entryDx=0;entryDy=0;" parent="1" source="kkfp5tMhu7OLnbENiX6D-49" target="kkfp5tMhu7OLnbENiX6D-48" edge="1">
          <mxGeometry width="50" height="50" relative="1" as="geometry">
            <mxPoint x="970" y="370" as="sourcePoint" />
            <mxPoint x="970" y="320" as="targetPoint" />
          </mxGeometry>
        </mxCell>
        <mxCell id="kkfp5tMhu7OLnbENiX6D-64" value="" style="endArrow=none;html=1;rounded=1;exitX=0;exitY=0.5;exitDx=0;exitDy=0;entryX=1;entryY=0.5;entryDx=0;entryDy=0;" parent="1" source="kkfp5tMhu7OLnbENiX6D-49" target="kkfp5tMhu7OLnbENiX6D-50" edge="1">
          <mxGeometry width="50" height="50" relative="1" as="geometry">
            <mxPoint x="960" y="600" as="sourcePoint" />
            <mxPoint x="960" y="560" as="targetPoint" />
          </mxGeometry>
        </mxCell>
        <mxCell id="kkfp5tMhu7OLnbENiX6D-65" value="" style="endArrow=none;html=1;rounded=1;exitX=0.5;exitY=0;exitDx=0;exitDy=0;entryX=0.5;entryY=1;entryDx=0;entryDy=0;" parent="1" source="kkfp5tMhu7OLnbENiX6D-50" target="kkfp5tMhu7OLnbENiX6D-51" edge="1">
          <mxGeometry width="50" height="50" relative="1" as="geometry">
            <mxPoint x="840" y="655" as="sourcePoint" />
            <mxPoint x="780" y="655" as="targetPoint" />
          </mxGeometry>
        </mxCell>
        <mxCell id="kkfp5tMhu7OLnbENiX6D-66" value="" style="endArrow=none;html=1;rounded=1;exitX=0;exitY=0.5;exitDx=0;exitDy=0;entryX=1;entryY=0.5;entryDx=0;entryDy=0;" parent="1" source="kkfp5tMhu7OLnbENiX6D-51" target="kkfp5tMhu7OLnbENiX6D-52" edge="1">
          <mxGeometry width="50" height="50" relative="1" as="geometry">
            <mxPoint x="730" y="610" as="sourcePoint" />
            <mxPoint x="730" y="580" as="targetPoint" />
          </mxGeometry>
        </mxCell>
        <mxCell id="kkfp5tMhu7OLnbENiX6D-67" value="" style="endArrow=none;html=1;rounded=1;exitX=1;exitY=0.5;exitDx=0;exitDy=0;entryX=0;entryY=0.5;entryDx=0;entryDy=0;" parent="1" source="kkfp5tMhu7OLnbENiX6D-53" target="kkfp5tMhu7OLnbENiX6D-52" edge="1">
          <mxGeometry width="50" height="50" relative="1" as="geometry">
            <mxPoint x="670" y="550" as="sourcePoint" />
            <mxPoint x="600" y="550" as="targetPoint" />
          </mxGeometry>
        </mxCell>
        <mxCell id="kkfp5tMhu7OLnbENiX6D-68" value="&lt;b&gt;&lt;font color=&quot;#ff003c&quot; style=&quot;font-size: 21px;&quot;&gt;1:М&lt;/font&gt;&lt;/b&gt;" style="text;html=1;align=center;verticalAlign=middle;whiteSpace=wrap;rounded=0;" parent="1" vertex="1">
          <mxGeometry x="510" y="730" width="60" height="30" as="geometry" />
        </mxCell>
        <mxCell id="kkfp5tMhu7OLnbENiX6D-69" value="&lt;b&gt;&lt;font color=&quot;#ff003c&quot; style=&quot;font-size: 21px;&quot;&gt;1:М&lt;/font&gt;&lt;/b&gt;" style="text;html=1;align=center;verticalAlign=middle;whiteSpace=wrap;rounded=0;rotation=-90;" parent="1" vertex="1">
          <mxGeometry x="860" y="490" width="60" height="30" as="geometry" />
        </mxCell>
        <mxCell id="kkfp5tMhu7OLnbENiX6D-71" value="&lt;b&gt;&lt;font color=&quot;#ff003c&quot; style=&quot;font-size: 21px;&quot;&gt;1:М&lt;/font&gt;&lt;/b&gt;" style="text;html=1;align=center;verticalAlign=middle;whiteSpace=wrap;rounded=0;" parent="1" vertex="1">
          <mxGeometry x="510" y="470" width="60" height="30" as="geometry" />
        </mxCell>
        <mxCell id="kkfp5tMhu7OLnbENiX6D-72" value="&lt;b&gt;&lt;font color=&quot;#ff003c&quot; style=&quot;font-size: 21px;&quot;&gt;М:1&lt;/font&gt;&lt;/b&gt;" style="text;html=1;align=center;verticalAlign=middle;whiteSpace=wrap;rounded=0;rotation=-90;" parent="1" vertex="1">
          <mxGeometry x="860" y="240" width="60" height="30" as="geometry" />
        </mxCell>
        <mxCell id="kkfp5tMhu7OLnbENiX6D-73" value="&lt;b&gt;&lt;font color=&quot;#ff003c&quot; style=&quot;font-size: 21px;&quot;&gt;М:1&lt;/font&gt;&lt;/b&gt;" style="text;html=1;align=center;verticalAlign=middle;whiteSpace=wrap;rounded=0;rotation=90;" parent="1" vertex="1">
          <mxGeometry x="630" y="620" width="60" height="30" as="geometry" />
        </mxCell>
        <mxCell id="kkfp5tMhu7OLnbENiX6D-74" value="&lt;b&gt;&lt;font color=&quot;#ff003c&quot; style=&quot;font-size: 21px;&quot;&gt;М:1&lt;/font&gt;&lt;/b&gt;" style="text;html=1;align=center;verticalAlign=middle;whiteSpace=wrap;rounded=0;rotation=0;" parent="1" vertex="1">
          <mxGeometry x="920" y="820" width="60" height="30" as="geometry" />
        </mxCell>
        <mxCell id="kkfp5tMhu7OLnbENiX6D-77" value="" style="endArrow=none;html=1;rounded=1;entryX=0.5;entryY=1;entryDx=0;entryDy=0;exitX=1;exitY=0.5;exitDx=0;exitDy=0;" parent="1" source="kkfp5tMhu7OLnbENiX6D-78" target="kkfp5tMhu7OLnbENiX6D-45" edge="1">
          <mxGeometry width="50" height="50" relative="1" as="geometry">
            <mxPoint x="560" y="290" as="sourcePoint" />
            <mxPoint x="610" y="240" as="targetPoint" />
            <Array as="points">
              <mxPoint x="1260" y="645" />
            </Array>
          </mxGeometry>
        </mxCell>
        <mxCell id="kkfp5tMhu7OLnbENiX6D-78" value="Опустошает" style="rhombus;whiteSpace=wrap;html=1;rounded=1;" parent="1" vertex="1">
          <mxGeometry x="1070" y="600" width="100" height="90" as="geometry" />
        </mxCell>
        <mxCell id="kkfp5tMhu7OLnbENiX6D-79" value="" style="endArrow=none;html=1;rounded=1;entryX=0;entryY=0.5;entryDx=0;entryDy=0;exitX=1;exitY=0.5;exitDx=0;exitDy=0;" parent="1" source="kkfp5tMhu7OLnbENiX6D-49" target="kkfp5tMhu7OLnbENiX6D-78" edge="1">
          <mxGeometry width="50" height="50" relative="1" as="geometry">
            <mxPoint x="1270" y="650" as="sourcePoint" />
            <mxPoint x="1270" y="450" as="targetPoint" />
            <Array as="points" />
          </mxGeometry>
        </mxCell>
        <mxCell id="kkfp5tMhu7OLnbENiX6D-80" value="&lt;b&gt;&lt;font color=&quot;#ff003c&quot; style=&quot;font-size: 21px;&quot;&gt;1:1&lt;/font&gt;&lt;/b&gt;" style="text;html=1;align=center;verticalAlign=middle;whiteSpace=wrap;rounded=0;rotation=0;" parent="1" vertex="1">
          <mxGeometry x="1090" y="585" width="60" height="30" as="geometry" />
        </mxCell>
        <mxCell id="n-6HJMGATWXchXvPlMJU-1" value="&lt;p class=&quot;MsoNormal&quot; align=&quot;center&quot; style=&quot;text-align:center&quot;&gt;&lt;span style=&quot;font-size:14.0pt;mso-bidi-font-size:11.0pt;line-height:107%;font-family:&#xa;&amp;quot;Times New Roman&amp;quot;,serif&quot;&gt;База данных предприятия по производству молочной&#xa;продукции&lt;/span&gt;&lt;/p&gt;" style="text;whiteSpace=wrap;html=1;" vertex="1" parent="1">
          <mxGeometry x="580" y="70" width="500" height="90" as="geometry" />
        </mxCell>
      </root>
    </mxGraphModel>
  </diagram>
</mxfile>
